<svg id="Capa_1" enable-background="new 0 0 501 501" height="512" viewBox="0 0 501 501" width="512" xmlns="http://www.w3.org/2000/svg"><g><path d="m5.5 256c0-135.132 109.403-244.712 244.468-244.999 135.09-.287 244.317 107.679 245.522 242.764.671 75.19-32.533 142.644-85.273 188.025-.986.848-2.439.846-3.44.016-42.414-35.167-96.877-56.306-156.277-56.306-59.541 0-114.122 21.24-156.578 56.556-.826.687-2.026.688-2.841-.011-52.389-44.934-85.581-111.613-85.581-186.045z" fill="#ab2538"/><path d="m495.5 256c0 2.54-.039 5.071-.116 7.593-27.782 80.918-104.541 139.074-194.884 139.074-113.771 0-206-92.229-206-206 0-77.971 43.319-145.825 107.203-180.807 15.769-3.187 32.088-4.86 48.797-4.86 135.31 0 245 109.69 245 245z" fill="#c92e43"/><path d="m394.486 246.144c-.048 1.944-2.576 2.663-3.66 1.049-2.762-4.112-6.255-7.834-10.45-10.964-3.651-2.725-7.581-4.812-11.655-6.281 10.233 8.248 16.779 20.886 16.779 35.052 0 24.853-20.147 45-45 45h-41c-24.853 0-45-20.147-45-45 0-24.853 20.147-45 45-45h12.507l1.426-1.911c14.864-19.918 43.061-24.014 62.979-9.15 12.157 9.072 18.42 23.113 18.074 37.205z" fill="#fdbf43"/><path d="m121.888 464.567c-11.08-6.847-21.574-14.552-31.388-23.022v-71.545c0-38.66 31.34-70 70-70h6.125s12.68 5.533.803 14.817c-16.391 12.811-26.928 32.767-26.928 55.183v84.095c0 9.552-10.486 15.494-18.612 10.472z" fill="#81ade2"/><path d="m410.5 370v71.545c-42.926 37.049-98.847 59.455-160 59.455-47.757 0-92.322-13.664-130-37.296v-93.704c0-29.472 18.214-54.691 44-65.012 8.038-3.218 34-4.988 34-4.988h104c10.382 6.565 23.617 6.565 33.999 0h4c38.661 0 70.001 31.34 70.001 70z" fill="#91cefb"/><path d="m355.5 410v67.423c-6.514 3.094-13.186 5.91-20 8.431v-75.854c0-5.523 4.477-10 10-10s10 4.477 10 10zm-200-10c-5.523 0-10 4.477-10 10v67.423c6.514 3.094 13.186 5.91 20 8.431v-75.854c0-5.523-4.477-10-10-10z" fill="#81ade2"/><path d="m390.5 110v40c0 60.751-49.249 110-110 110-10.4 0-20.463-1.444-30-4.141-9.537 2.697-19.6 4.141-30 4.141-60.751 0-110-49.249-110-110v-40c0-60.751 49.249-110 110-110 10.4 0 20.463 1.444 30 4.141 9.537-2.697 19.6-4.141 30-4.141 60.751 0 110 49.249 110 110z" fill="#f19b0b"/><path d="m390.5 110v40c0 53.899-38.766 98.744-89.938 108.175-51.171-9.43-89.938-54.275-89.938-108.175v-40c0-53.899 38.766-98.744 89.938-108.175 51.172 9.431 89.938 54.276 89.938 108.175z" fill="#fdbf43"/><path d="m140.5 210c-13.807 0-25-11.193-25-25v-10c0-13.807 11.193-25 25-25 13.807 0 25 11.193 25 25v10c0 13.807-11.193 25-25 25z" fill="#f4e0d8"/><path d="m130.5 170v20c0 8.178 3.927 15.439 9.998 20-13.806-.001-24.998-11.194-24.998-25v-10c0-13.806 11.192-24.999 24.998-25-6.071 4.561-9.998 11.822-9.998 20zm230-20v-20c0-60.751-49.249-110-110-110-60.751 0-110 49.249-110 110v40c0 50.351 33.83 92.801 80 105.859v34.141c0 16.569 13.431 30 30 30 16.569 0 30-13.431 30-30v-34.141c33.586-9.499 60.641-34.551 72.895-66.883 2.252.666 4.637 1.024 7.105 1.024 13.807 0 25-11.193 25-25v-10c0-13.807-11.193-25-25-25z" fill="#eac0b5"/><path d="m360.5 130v40c0 50.792-34.425 93.543-81.216 106.195-9.023 2.44-18.545 2.44-27.568 0-46.791-12.652-81.216-55.403-81.216-106.195v-40c0-55.663 41.345-101.669 95-108.985 53.655 7.316 95 53.322 95 108.985z" fill="#f4e0d8"/><path d="m236 176.731c-2.929-2.93-2.929-7.678 0-10.607 2.929-2.928 7.678-2.928 10.606 0 1.042 1.042 2.424 1.616 3.893 1.616s2.851-.574 3.893-1.616c2.929-2.928 7.678-2.928 10.606 0 2.929 2.93 2.929 7.678 0 10.607-3.875 3.875-9.024 6.009-14.5 6.009s-10.623-2.134-14.498-6.009zm48.088 25.466c-2.93-2.929-7.678-2.929-10.607 0-6.145 6.145-14.306 9.529-22.98 9.529s-16.836-3.384-22.981-9.529c-2.929-2.929-7.678-2.929-10.606 0-2.929 2.929-2.929 7.678 0 10.606 9.26 9.26 21.424 13.89 33.587 13.89 12.164 0 24.327-4.63 33.588-13.89 2.928-2.929 2.928-7.678-.001-10.606z" fill="#e1a595"/><path d="m218 137.5c0 8.284-6.716 15-15 15s-15-6.716-15-15 6.716-15 15-15 15 6.716 15 15zm80-15c-8.284 0-15 6.716-15 15s6.716 15 15 15 15-6.716 15-15-6.716-15-15-15z" fill="#533022"/><path d="m220.5 130c0 4.142-3.358 7.5-7.5 7.5s-7.5-3.358-7.5-7.5 3.358-7.5 7.5-7.5 7.5 3.358 7.5 7.5zm87.5-7.5c-4.142 0-7.5 3.358-7.5 7.5s3.358 7.5 7.5 7.5 7.5-3.358 7.5-7.5-3.358-7.5-7.5-7.5z" fill="#fff5f5"/><path d="m176.677 98.682c-11.621-3.668-22.868-8.178-33.669-13.46 17.255-42.412 58.882-72.313 107.492-72.313 4.014 0 7.981.204 11.89.602 4.227.43 5.158 6.178 1.301 7.96-27.979 12.926-49.023 36.234-59.612 63.925-4.203 10.991-16.18 16.828-27.402 13.286z" fill="#f19b0b"/><path d="m164.5 360h172v125.481c-26.758 10.032-55.738 15.519-86 15.519s-59.242-5.487-86-15.519z" fill="#002c5d"/><path d="m181.5 398.455c-9.389 0-17-7.611-17-17v-81.455h34v81.455c0 9.389-7.611 17-17 17zm155-17v-81.455h-34v81.455c0 9.389 7.611 17 17 17 9.389 0 17-7.611 17-17z" fill="#c76d36"/><path d="m191.5 380c0 5.523-4.477 10-10 10s-10-4.477-10-10 4.477-10 10-10 10 4.477 10 10zm128-10c-5.523 0-10 4.477-10 10s4.477 10 10 10 10-4.477 10-10-4.477-10-10-10z" fill="#fcb30b"/><path d="m246.217 106.46c-.304 1.995-2.048 3.468-4.065 3.4-23.302-.78-45.779-4.814-66.991-11.663 6.589-21.698 53.293-70.678 95.769-86.358 41.391 5.885 71.793 35.85 87.062 73.382-13.334 6.521-27.348 11.866-41.906 15.901-2.259.626-4.576-.782-5.025-3.082l-2.515-12.897c-.582-2.987-3.199-5.142-6.242-5.142h-.45c-3.043 0-5.66 2.156-6.242 5.142l-3.649 18.711c-.321 1.647-1.634 2.93-3.291 3.19-5.366.839-10.789 1.505-16.264 1.99-2.092.185-3.962-1.309-4.278-3.385l-4.568-29.991c-.439-2.881-2.672-5.274-5.566-5.613-3.462-.405-6.535 2.003-7.046 5.357z" fill="#fdbf43"/><path d="m297.808 379.608c-9.106-8.063-23.025-7.216-31.087 1.89l-48.451 54.724c-5.492 6.203-4.915 15.682 1.287 21.174l1.136 1.006 44.256-49.986c1.017 1.506 2.239 2.909 3.662 4.169 9.106 8.063 23.025 7.217 31.087-1.89 8.063-9.106 7.217-23.025-1.89-31.087zm-8.122 23.262c-4.03 4.552-10.988 4.975-15.54.945-4.552-4.031-4.975-10.988-.945-15.54s10.988-4.975 15.54-.945c4.552 4.031 4.976 10.988.945 15.54z" fill="#aba4d5"/><path d="m184.5 430c0-5.523 4.477-10 10-10h112c5.523 0 10 4.477 10 10 0 27.614-22.386 50-50 50h-32c-27.614 0-50-22.386-50-50z" fill="#ab5e2e"/><path d="m211.667 430c0-5.523 4.477-10 10-10h84.833c5.523 0 10 4.477 10 10 0 27.614-22.386 50-50 50h-4.833c-27.615 0-50-22.386-50-50z" fill="#c76d36"/><path d="m269.52 451.07-10.777-72.292c-1.793-12.03-13-20.328-25.029-18.535-12.03 1.793-20.328 13-18.535 25.029 1.793 12.03 12.999 20.328 25.029 18.535 1.88-.28 3.67-.791 5.343-1.498l9.844 66.032 1.5-.224c8.194-1.22 13.846-8.853 12.625-17.047zm-22.648-60.899c-4.03 4.552-10.988 4.975-15.54.945s-4.975-10.988-.945-15.54 10.988-4.975 15.54-.945c4.553 4.031 4.976 10.988.945 15.54z" fill="#fff5f5"/><path d="m258.639 406.208c0 2.209-1.791 4-4 4s-4-1.791-4-4 1.791-4 4-4 4 1.791 4 4z" fill="#aba4d5"/><path d="m206.999 390h11.159c3.401 0 6.064 2.928 5.741 6.314l-5.579 58.604c-.282 2.96-2.768 5.221-5.741 5.221-2.973 0-5.459-2.261-5.741-5.221l-5.579-58.604c-.324-3.386 2.339-6.314 5.74-6.314z" fill="#f19b0b"/><path d="m203.182 416.525-1.924-20.211c-.322-3.386 2.34-6.314 5.741-6.314h11.159c3.401 0 6.064 2.928 5.741 6.314l-1.924 20.211c-.461 4.844-4.53 8.544-9.396 8.544-4.867 0-8.936-3.7-9.397-8.544z" fill="#fdbf43"/><path d="m80.207 295.643-6.941-20.544c-.399-1.182-1.327-2.11-2.509-2.509l-20.544-6.941c-3.626-1.225-3.626-6.354 0-7.579l20.544-6.941c1.182-.399 2.11-1.327 2.509-2.509l6.941-20.544c1.225-3.626 6.354-3.626 7.579 0l6.941 20.544c.399 1.182 1.327 2.11 2.509 2.509l20.544 6.941c3.626 1.225 3.626 6.354 0 7.579l-20.544 6.941c-1.182.399-2.11 1.327-2.509 2.509l-6.941 20.544c-1.225 3.627-6.354 3.627-7.579 0z" fill="#fcb30b"/><path d="m449.028 294.936 5.123-15.164c.295-.872.98-1.557 1.852-1.852l15.164-5.123c2.677-.904 2.677-4.69 0-5.594l-15.164-5.123c-.872-.295-1.557-.98-1.852-1.852l-5.123-15.164c-.904-2.677-4.69-2.677-5.594 0l-5.123 15.164c-.295.872-.98 1.557-1.852 1.852l-15.164 5.123c-2.677.904-2.677 4.69 0 5.594l15.164 5.123c.872.295 1.557.98 1.852 1.852l5.123 15.164c.905 2.677 4.69 2.677 5.594 0z" fill="#ea5569"/><path d="m112.304 133.188 3.305-9.783c.19-.563.632-1.005 1.195-1.195l9.783-3.305c1.727-.583 1.727-3.026 0-3.609l-9.783-3.305c-.563-.19-1.005-.632-1.195-1.195l-3.305-9.783c-.583-1.727-3.026-1.727-3.609 0l-3.305 9.783c-.19.563-.632 1.005-1.195 1.195l-9.783 3.305c-1.727.583-1.727 3.026 0 3.609l9.783 3.305c.563.19 1.005.632 1.195 1.195l3.305 9.783c.584 1.726 3.026 1.726 3.609 0z" fill="#fff5f5"/></g></svg>